<?xml version="1.0" encoding="utf-8"?>
<!DOCTYPE svg PUBLIC "-//W3C//DTD SVG 1.1//EN" "http://www.w3.org/Graphics/SVG/1.1/DTD/svg11.dtd">
<!-- exported from Silhouette Studio® Business Edition V4.4.090ssbe -->
<svg version="1.1" xmlns="http://www.w3.org/2000/svg" xmlns:xlink="http://www.w3.org/1999/xlink" width="150mm" height="147mm" viewBox="0 0 150 147">
<defs/>
<path d="M 65.96844 136.1588 C 61.05067 133.5976 57.01129 131.4863 56.99202 131.467 C 56.97275 131.4477 64.99257 131.432 74.81382 131.432 L 92.67069 131.432 L 83.79754 136.1241 C 78.91729 138.7047 74.92111 140.816 74.91711 140.8158 C 74.91311 140.8156 70.8862 138.72 65.96844 136.1588 Z M 56.40904 130.1418 C 56.36002 130.0043 55.84051 127.9842 55.84015 127.9297 C 55.83996 127.902 64.34592 127.8794 74.74227 127.8794 C 85.13862 127.8794 93.64417 127.902 93.64348 127.9297 C 93.6428 127.9573 93.49677 128.4776 93.31897 129.0859 L 92.99571 130.1919 L 74.71734 130.2088 C 60.12897 130.2223 56.43293 130.2087 56.40904 130.1418 Z M 95.16122 129.6054 C 95.21457 129.375 95.34659 128.9968 95.4546 128.765 C 95.98316 127.6305 96.66488 127.1375 97.71329 127.1317 C 98.26753 127.1286 98.70733 127.2556 99.14118 127.5442 C 99.41418 127.7258 99.44764 127.7337 99.49362 127.6278 C 99.5747 127.441 106.9161 102.0499 106.8951 102.0289 C 106.8846 102.0185 104.7383 107.3103 102.1254 113.7884 C 99.51243 120.2666 97.36485 125.5794 97.35294 125.5948 C 97.34104 125.6102 94.30939 122.5788 90.61596 118.8583 C 86.92252 115.1378 82.71639 110.9024 81.26902 109.4461 L 78.63744 106.7985 L 78.74509 106.3628 C 78.89548 105.754 78.89491 104.4526 78.744 103.8827 C 78.46635 102.8341 77.74433 101.8285 76.97613 101.4203 C 75.91688 100.8574 74.55528 100.805 73.29021 101.2783 C 72.84159 101.4462 72.1496 102.0693 71.78097 102.6374 C 71.20016 103.5324 70.99393 104.8378 71.22527 106.1548 L 71.34595 106.8419 L 67.1284 111.0766 C 54.45717 123.7994 52.6623 125.6004 52.65405 125.6004 C 52.64909 125.6004 50.50848 120.3066 47.89714 113.8364 C 45.2858 107.3662 43.13924 102.0824 43.12703 102.0946 C 43.10886 102.1128 50.40639 127.3877 50.50883 127.6614 C 50.53075 127.72 50.63417 127.6855 50.85365 127.5463 C 51.5886 127.0802 52.50391 126.9911 53.22654 127.3155 C 53.72677 127.5399 54.21133 128.047 54.49646 128.6445 C 54.82023 129.3229 55.03946 130.3473 54.73479 129.7581 C 54.54483 129.3908 53.85034 128.7679 53.38102 128.5439 C 52.55819 128.1512 51.95868 128.2087 50.79791 128.7917 L 50.20407 129.0899 L 49.36165 129.0712 L 48.51923 129.0524 L 46.90091 123.8929 L 45.28258 118.7334 L 45.01446 118.6879 C 44.86699 118.6628 44.21848 118.594 43.57331 118.5349 C 39.3209 118.1454 35.52821 118.2368 32.45632 118.8028 C 27.59896 119.6977 23.6864 120.852 20.08866 122.4515 C 19.65609 122.6438 19.28486 122.7839 19.26371 122.7627 C 19.21136 122.7104 19.41487 121.3222 19.6191 120.3385 C 19.88365 119.0643 20.4096 117.0432 20.88373 115.4789 C 21.12396 114.6862 21.62395 113.0121 21.99483 111.7587 C 22.74064 109.238 23.8615 105.7386 24.48527 103.9832 C 24.96791 102.625 28.76015 93.13487 29.76193 90.7783 C 30.161 89.83955 31.25484 87.59856 31.8395 86.5219 C 33.32133 83.79311 35.51654 80.55613 37.4762 78.21017 C 38.79709 76.62893 41.07018 74.48788 42.46732 73.50899 C 43.8978 72.50674 45.562 71.71 47.61722 71.04344 C 48.87717 70.63481 50.709 70.23261 50.94776 70.31219 C 50.99377 70.32754 50.85435 70.49242 50.63373 70.68355 C 50.15704 71.09651 48.71938 72.65872 48.06182 73.47829 C 47.16091 74.60114 45.68737 76.95433 45.03891 78.30578 C 44.68436 79.04468 44.64138 79.4256 44.83913 80.07661 C 45.00911 80.63628 45.15091 80.77342 46.00099 81.20034 C 47.96699 82.18774 53.73396 84.3055 56.08511 84.90347 C 58.82301 85.59979 60.10285 85.71487 63.68232 85.58659 C 66.23405 85.49514 67.48106 85.42669 67.53246 85.3753 C 67.55773 85.35001 66.74422 81.33792 66.46017 80.08701 C 66.40849 79.85944 67.02766 80.46864 68.57856 82.17129 C 69.76648 83.47543 70.33389 83.99725 71.08986 84.48085 C 72.42086 85.33228 74.21283 85.76966 75.665 85.59756 C 76.92854 85.44782 77.99944 85.06977 78.97327 84.42966 C 79.86433 83.84395 80.08154 83.63395 82.30624 81.207 C 83.26383 80.16236 83.63307 79.81664 83.55782 80.03519 C 83.45892 80.32243 82.4452 85.33219 82.47911 85.36611 C 82.54117 85.42816 83.69337 85.49516 86.27143 85.58658 C 89.96827 85.71767 91.58213 85.55817 94.38205 84.785 C 97.61159 83.89322 104.3551 81.25544 104.8814 80.67815 C 105.0855 80.45416 105.2673 79.84932 105.2711 79.38129 C 105.274 79.02704 105.2311 78.88802 104.9232 78.25436 C 104.1604 76.68462 102.6713 74.34517 101.6653 73.13624 C 101.3646 72.77483 100.636 71.98492 100.0461 71.38091 L 98.97361 70.28268 L 99.37579 70.32958 C 99.92384 70.39351 101.1655 70.67215 101.9786 70.91372 C 104.484 71.65803 106.6655 72.77674 108.5669 74.29234 C 109.4874 75.02608 112.0476 77.60305 112.8614 78.61497 C 114.4104 80.54121 116.0485 82.9015 117.3047 85.0173 C 118.0396 86.25514 119.4786 89.05882 120.0894 90.44315 C 120.8626 92.19524 125.0013 102.533 125.537 104.0502 C 126.1478 105.7799 127.2947 109.3494 127.8306 111.1889 C 128.0938 112.0922 128.55 113.6154 128.8445 114.5739 C 129.4964 116.6961 129.9686 118.4437 130.2753 119.8693 C 130.5718 121.2477 130.8121 122.7851 130.7311 122.7851 C 130.7116 122.7851 130.1339 122.5455 129.4472 122.2527 C 127.82 121.5588 126.3044 120.997 125.0148 120.6098 C 124.4433 120.4382 123.7043 120.2094 123.3725 120.1013 C 122.6922 119.8797 118.2401 118.9051 116.9667 118.699 C 114.0316 118.2241 109.9477 118.1755 106.0794 118.5696 C 105.3425 118.6447 104.7345 118.7115 104.7283 118.718 C 104.719 118.7279 101.6189 128.6111 101.513 128.9686 C 101.4823 129.0722 101.3805 129.0859 100.6433 129.0859 L 99.8085 129.0859 L 99.28255 128.8215 C 98.43909 128.3974 97.96989 128.2619 97.47859 128.3005 C 96.70749 128.3611 95.7941 128.9482 95.31102 129.6938 C 95.19321 129.8756 95.08948 130.0243 95.08052 130.0243 C 95.07156 130.0243 95.10789 129.8358 95.16122 129.6054 Z M 96.07154 117.6071 C 95.9258 115.0144 95.31033 111.0552 94.75085 109.1115 C 94.262 107.4131 93.13361 104.8379 92.34218 103.6144 C 90.63858 100.981 88.43742 99.36977 85.51649 98.61819 C 85.11973 98.51611 84.80299 98.42583 84.81268 98.41758 C 84.84859 98.38699 86.53349 97.91924 87.32897 97.71902 C 88.81052 97.34615 89.57542 97.24663 90.95342 97.24742 C 93.25002 97.24873 95.44007 97.58623 98.79272 98.45544 C 99.35684 98.6017 99.86493 98.72136 99.92182 98.72136 C 100.021 98.72136 105.4482 93.42473 105.5014 93.27595 C 105.5157 93.23611 105.4841 93.22013 105.4312 93.2404 C 105.3784 93.26069 104.13 94.15724 102.6571 95.23274 C 100.4891 96.81577 99.94714 97.18253 99.81149 97.15852 C 99.71931 97.14222 98.91998 96.94209 98.03519 96.7138 C 95.21101 95.98508 93.69561 95.7993 91.06406 95.85921 C 89.22495 95.90108 88.1168 96.03861 86.62572 96.41007 C 84.24113 97.00415 82.38369 97.86156 82.38369 98.36823 C 82.38369 98.59297 82.6946 98.83035 83.37566 99.1256 C 84.34914 99.5476 87.16288 100.8433 87.81743 101.171 C 89.55354 102.0402 90.97444 103.7578 92.46802 106.7927 C 93.8138 109.5273 93.79084 109.4615 94.96077 113.9331 C 95.54007 116.1473 96.03144 117.959 96.0527 117.959 C 96.07394 117.959 96.08242 117.8007 96.07154 117.6071 Z M 54.09018 117.5735 C 56.24348 109.2903 56.06334 109.8782 57.16626 107.5358 C 58.61098 104.4675 59.9353 102.6199 61.4033 101.6245 C 61.91169 101.2798 64.26817 100.1501 66.42575 99.21672 C 67.35728 98.81374 67.57005 98.65642 67.57005 98.37074 C 67.57005 97.95797 66.71202 97.45018 65.12076 96.9212 C 62.88799 96.17897 61.3524 95.9144 58.95671 95.85918 C 56.14514 95.79438 54.35645 96.03586 51.18417 96.90848 C 50.64197 97.05764 50.15643 97.17966 50.1052 97.17966 C 50.05397 97.17966 48.83024 96.31732 47.3858 95.26331 C 45.94136 94.20932 44.71888 93.33135 44.66916 93.31227 C 44.61945 93.2932 44.57877 93.30782 44.57877 93.34477 C 44.57877 93.42859 49.92287 98.68069 50.03499 98.70705 C 50.07994 98.71762 50.78363 98.56085 51.59874 98.35869 C 54.85699 97.55057 56.315 97.32081 58.52101 97.26778 C 59.79115 97.23724 60.24218 97.25143 60.84985 97.34108 C 61.60292 97.4522 63.7439 97.96826 64.6817 98.26472 L 65.17837 98.42172 L 64.28396 98.67315 C 60.05196 99.86285 57.55556 102.5675 55.56787 108.1162 C 54.91919 109.927 54.37542 112.7982 54.06554 116.0486 C 54.0093 116.6385 53.94788 117.2794 53.92904 117.473 C 53.88909 117.8832 53.99284 117.948 54.09018 117.5735 Z M 71.53316 92.65135 C 71.69447 92.59395 72.46668 92.3828 73.24918 92.18213 C 74.75887 91.79498 75.24535 91.74268 75.96226 91.89051 C 76.51312 92.00411 78.56686 92.55071 78.84921 92.65887 C 79.14771 92.77322 79.16624 92.77517 79.16624 92.69212 C 79.16624 92.59566 77.58841 91.55925 77.05244 91.30362 C 76.10469 90.85164 74.86011 90.76168 73.86713 91.0734 C 73.17186 91.29166 70.86361 92.75569 71.21476 92.75569 C 71.22856 92.75569 71.37184 92.70874 71.53316 92.65135 Z M 59.15779 91.74699 C 61.24329 91.56833 63.2959 91.04492 65.35807 90.16592 C 66.10609 89.84707 67.57005 89.03105 67.57005 88.93294 C 67.57005 88.90071 67.42677 88.91918 67.25166 88.97395 C 66.06334 89.34566 63.62218 89.84367 62.20766 90.00294 C 60.97397 90.14185 57.80466 90.22207 56.57806 90.14542 C 53.11917 89.9293 51.03028 89.3298 49.06977 87.99064 C 48.0599 87.30081 46.12408 85.69257 44.93283 84.55372 C 44.30648 83.95494 44.09424 83.83994 44.38289 84.25577 C 45.17552 85.39764 47.62858 88.36504 48.27354 88.96218 C 49.55937 90.15267 50.95378 90.95247 52.36973 91.31164 C 53.96461 91.71622 57.13978 91.91985 59.15779 91.74699 Z M 94.79395 91.71259 C 96.31834 91.58962 97.35916 91.42213 98.10222 91.1802 C 99.75662 90.64157 101.3692 89.4962 102.7262 87.89602 C 104.0694 86.31208 105.7561 84.13245 105.6899 84.06623 C 105.6684 84.04473 105.2645 84.38117 104.7923 84.8139 C 103.8228 85.70248 102.3212 86.96753 101.5207 87.57015 C 99.69505 88.94461 98.19873 89.54474 95.69597 89.90628 C 93.86555 90.17069 92.58659 90.22812 90.34457 90.14655 C 88.27096 90.07112 87.31728 89.97756 85.81832 89.70252 C 85.00706 89.55367 82.82085 89.02441 82.50098 88.89943 C 82.43646 88.87423 82.38422 88.87946 82.38488 88.91106 C 82.38657 88.99198 83.58009 89.68193 84.26052 89.99534 C 86.40033 90.9809 88.67267 91.56866 91.1311 91.77251 C 91.87889 91.83452 93.63986 91.8057 94.79395 91.71259 Z M 80.70234 90.51703 C 80.53923 90.3612 79.00542 89.31585 78.44035 88.97539 C 77.12185 88.18098 76.41668 87.97431 75.04389 87.98002 C 73.56173 87.98617 72.71156 88.30376 70.87817 89.53621 C 69.71243 90.31984 69.53536 90.45341 69.59 90.50805 C 69.61231 90.53036 69.79284 90.48464 69.99118 90.40646 C 70.35783 90.26193 72.53917 89.66119 73.63627 89.40259 C 74.48922 89.20154 75.31975 89.16281 76.00163 89.29229 C 76.80067 89.44403 79.84294 90.26014 80.29306 90.4435 C 80.62143 90.57728 80.79877 90.60914 80.70234 90.51703 Z M 14.24152 124.9636 C 12.88085 123.5995 11.58667 122.2573 11.36556 121.9808 C 11.14445 121.7043 10.38976 120.7843 9.68847 119.9363 C 7.368379 117.1311 6.750069 116.3095 5.940174 114.9559 L 5.687446 114.5335 L 5.903656 113.5818 C 6.206752 112.2476 6.77833 110.1784 7.168883 109.0015 C 7.504762 107.9893 9.561231 102.6979 10.52419 100.3681 C 12.33397 95.9895 14.79158 90.41973 15.90247 88.17915 C 17.55141 84.85336 18.85436 82.7277 23.73875 75.39493 C 26.43311 71.34997 27.61156 69.65256 28.95083 67.88757 C 31.98357 63.8908 32.36438 63.36283 32.86817 62.4565 C 33.181 61.8937 33.43461 61.21671 33.55635 60.61943 C 33.70506 59.88983 34.61338 53.61745 34.99363 50.69438 C 35.18066 49.25658 35.46671 47.08482 35.62929 45.86821 C 35.79462 44.63107 35.98657 42.79955 36.06483 41.71236 C 36.3014 38.42627 36.62615 36.2685 37.28042 33.63525 C 38.41776 29.05783 40.63927 24.13629 43.08028 20.78629 C 44.81234 18.40921 47.10547 16.137 50.45745 13.47638 C 52.41288 11.92427 54.35889 10.88429 56.84414 10.0632 C 59.00209 9.35026 60.52184 9.057902 68.24036 7.870895 C 68.81178 7.783016 69.28501 7.715613 69.29196 7.72111 C 69.30676 7.732808 69.85059 58.32278 69.84969 59.60378 C 69.84935 60.07997 69.86786 60.4508 69.89082 60.42784 C 69.91376 60.40489 70.11973 59.51561 70.3485 58.45168 L 70.76445 56.51725 L 70.54972 31.48592 C 70.43163 17.71869 70.35385 6.434631 70.37691 6.410236 C 70.57867 6.196734 77.17786 6.095894 78.8311 6.28105 C 79.25506 6.328533 79.61495 6.379915 79.63087 6.395233 C 79.64678 6.410551 79.56377 17.69369 79.44637 31.46888 L 79.23292 56.51469 L 79.65205 58.4642 L 80.07114 60.41372 L 80.11855 59.87748 C 80.14462 59.58255 80.27408 48.37682 80.40621 34.97585 C 80.53837 21.57488 80.66785 9.959229 80.69396 9.16329 L 80.74146 7.71613 L 83.45616 8.13537 C 90.34621 9.19942 92.05295 9.574762 94.61665 10.58975 C 96.22889 11.22804 98.09182 12.31945 99.54337 13.47608 C 103.2285 16.41253 105.3407 18.54287 107.2358 21.2347 C 109.7192 24.76207 111.9749 30.06724 112.9862 34.7588 C 113.4994 37.13967 113.7253 38.81958 113.9563 41.97301 C 114.0316 43.00116 114.1982 44.61491 114.3266 45.55911 C 114.4549 46.50331 114.7262 48.5578 114.9294 50.12462 C 115.4317 53.9981 116.3437 60.22606 116.5047 60.88293 C 116.834 62.22604 117.496 63.24945 120.9166 67.70283 C 122.072 69.20699 123.6458 71.47232 126.214 75.32789 C 132.1787 84.28226 133.2975 86.2026 135.7231 91.6497 C 137.9548 96.6612 140.0347 101.6654 142.0612 106.899 C 142.928 109.1374 143.452 110.855 144.0756 113.5015 L 144.3126 114.5069 L 144.0366 114.9761 C 143.6343 115.6599 143.0191 116.5716 142.5282 117.2114 C 142.1424 117.7144 139.4833 120.9608 138.4844 122.1483 C 138.2674 122.4064 137.0053 123.701 135.6798 125.0251 L 133.2698 127.4327 L 133.2298 127.2036 C 131.8385 119.2244 131.4249 117.1227 130.6719 114.2053 C 129.6941 110.4171 128.4501 106.4385 127.5005 104.0627 C 127.0981 103.0558 122.6189 92.13805 121.8856 90.37659 C 121.0285 88.3177 120.7194 87.69061 119.5559 85.65051 C 117.6186 82.25335 117.1489 81.51028 115.5736 79.34969 C 114.3031 77.60717 113.7788 76.98527 112.0851 75.21168 C 109.7865 72.80461 109.079 72.27176 106.9167 71.3187 C 104.2258 70.13271 101.3028 69.56332 97.90536 69.56332 C 96.26238 69.56332 95.66404 69.62373 94.52668 69.90446 C 93.43733 70.17334 92.67972 70.46793 91.50169 71.0806 C 89.50858 72.11723 88.05202 73.231 85.77633 75.45859 C 84.5056 76.70245 83.55984 77.76638 82.5213 79.12026 C 81.41354 80.56438 80.90284 81.15025 79.89446 82.13371 C 78.3624 83.62793 77.40405 84.31106 76.51505 84.54261 C 75.95428 84.68867 73.96648 84.68572 73.4641 84.53807 C 72.53558 84.26517 71.36803 83.41535 69.88159 81.93045 C 69.05863 81.10835 68.48969 80.436 67.16332 78.71825 C 65.32024 76.33131 62.35032 73.49543 60.19676 72.06609 C 58.12778 70.69289 56.05658 69.87611 54.00914 69.62605 C 53.12102 69.51758 50.05429 69.57939 48.93571 69.72832 C 46.48163 70.05504 44.54397 70.61853 42.43959 71.61743 C 40.85401 72.37006 40.40719 72.71173 38.51255 74.62027 C 37.59089 75.5487 36.54107 76.65569 36.17961 77.08022 C 34.96497 78.50689 33.06508 81.18192 31.997 82.96931 C 30.8458 84.89581 29.27262 87.71407 28.95161 88.42498 C 28.30847 89.84924 22.6442 103.6343 22.07676 105.1562 C 21.27877 107.2965 19.99057 111.5805 19.18437 114.775 C 18.59183 117.123 17.95611 120.3363 17.09576 125.3323 C 16.90847 126.4198 16.74629 127.3398 16.73535 127.3767 C 16.72441 127.4135 15.60218 126.3277 14.24152 124.9636 Z M 115.0943 69.23919 C 115.0943 69.12816 112.0414 66.96568 110.695 66.12302 C 108.3135 64.63255 104.5376 62.90551 102.2581 62.26406 C 100.4359 61.7513 99.08759 61.52751 97.49206 61.473 C 94.99421 61.38768 92.49932 61.82685 89.18723 62.93489 C 87.54044 63.48582 87.07813 63.69584 86.17088 64.30507 C 85.0162 65.08045 82.92019 66.77067 83.0064 66.85688 C 83.02484 66.87532 83.33717 66.74136 83.70049 66.55922 C 85.94569 65.43358 88.05978 64.58936 89.83472 64.10964 C 91.39317 63.68843 93.95001 63.25244 95.62211 63.12278 C 98.26001 62.91822 101.4809 63.33076 103.9694 64.19192 C 105.3046 64.65398 109.8056 66.70082 113.1505 68.36703 C 114.1643 68.87206 115.0164 69.28751 115.0441 69.29025 C 115.0717 69.29297 115.0943 69.26999 115.0943 69.23919 Z M 37.45387 68.06102 C 41.78043 65.9646 45.30962 64.39007 46.47148 64.03786 C 49.47815 63.1264 52.62409 62.862 55.72122 63.26044 C 57.06395 63.43317 58.72919 63.74631 59.89513 64.04533 C 61.78846 64.53087 63.21856 65.08141 65.85457 66.33947 C 66.40414 66.60175 66.87168 66.79799 66.89353 66.77552 C 66.94089 66.72684 66.65916 66.47558 65.62619 65.64526 C 63.49902 63.93539 62.89577 63.60958 60.26379 62.74917 C 53.89511 60.66719 49.31127 61.07019 42.66841 64.29609 C 40.33725 65.42815 38.81929 66.35342 36.25029 68.20822 C 35.17882 68.98181 34.88149 69.22817 35.01929 69.22817 C 35.03349 69.22817 36.12904 68.70295 37.45387 68.06102 Z M 60.59894 123.3547 L 60.59894 120.3717 L 62.27233 118.6794 L 63.94572 116.987 L 63.94808 121.6624 L 63.95044 126.3377 L 62.27469 126.3377 L 60.59894 126.3377 L 60.59894 123.3547 Z M 66.89976 120.5559 L 66.89976 114.774 L 68.57551 113.0993 L 70.25124 111.4246 L 70.25124 118.8811 L 70.25124 126.3377 L 68.57551 126.3377 L 66.89976 126.3377 L 66.89976 120.5559 Z M 72.86543 118.16 L 72.86543 109.9824 L 74.94336 109.9824 L 77.02128 109.9824 L 77.02128 118.16 L 77.02128 126.3377 L 74.94336 126.3377 L 72.86543 126.3377 L 72.86543 118.16 Z M 79.70248 118.8476 L 79.70248 111.3575 L 81.41174 113.0658 L 83.12101 114.7741 L 83.12101 120.5559 L 83.12101 126.3377 L 81.41174 126.3377 L 79.70248 126.3377 L 79.70248 118.8476 Z M 86.00331 121.6629 L 86.00331 116.988 L 87.71256 118.6963 L 89.42183 120.4046 L 89.42183 123.3711 L 89.42183 126.3377 L 87.71256 126.3377 L 86.00331 126.3377 L 86.00331 121.6629 Z" fill-rule="evenodd" fill="#33A02B" fill-opacity="1" stroke="none" stroke-opacity="1" stroke-width="0.1" stroke-linecap="round" stroke-linejoin="round"/>
</svg>