<?xml version="1.0" encoding="utf-8"?>
<!DOCTYPE svg PUBLIC "-//W3C//DTD SVG 1.1//EN" "http://www.w3.org/Graphics/SVG/1.1/DTD/svg11.dtd">
<!-- exported from Silhouette Studio® Business Edition V4.4.090ssbe -->
<svg version="1.1" xmlns="http://www.w3.org/2000/svg" xmlns:xlink="http://www.w3.org/1999/xlink" width="80mm" height="109mm" viewBox="0 0 80 109">
<defs/>
<path d="M 23.93842 107.0446 C 24.77128 106.5263 25.16191 106.3972 26.22367 106.2895 L 26.9338 106.2175 L 26.99847 105.5117 C 27.11041 104.2902 27.15287 104.1188 27.32692 104.1856 C 27.414 104.219 27.60872 104.4571 27.75964 104.7146 C 28.10288 105.3003 28.20786 105.3549 29.2425 105.4864 C 29.70496 105.5451 30.38128 105.715 30.74544 105.8638 C 31.6938 106.2514 32.00242 106.2248 32.52682 105.7101 C 32.91101 105.3331 33.03395 105.278 33.63114 105.2156 L 34.30313 105.1454 L 34.23618 104.71 C 34.11761 103.939 33.53103 102.188 33.18736 101.579 C 33.0037 101.2536 32.59384 100.7299 32.27654 100.4151 C 31.60489 99.74876 31.64769 99.65581 32.62728 99.65328 C 33.13634 99.65197 33.79212 99.82757 36.02073 100.5619 C 37.85881 101.1675 39.0565 101.5032 39.59995 101.5652 C 41.45538 101.7768 43.73857 102.4127 44.73064 102.994 C 45.31342 103.3356 46.03397 103.3604 46.42547 103.0525 C 46.78132 102.7726 47.99244 102.7674 49.31902 103.0401 C 50.01227 103.1826 50.29908 103.2041 50.36119 103.118 C 50.40832 103.0527 50.42307 102.6765 50.39395 102.282 C 50.35773 101.7913 50.37866 101.5646 50.46019 101.5646 C 50.52575 101.5646 51.09989 101.6891 51.73607 101.8412 C 52.68207 102.0674 52.90844 102.1593 52.97881 102.346 C 53.05325 102.5434 53.20079 103.507 53.50722 105.7969 C 53.58514 106.3792 53.7248 106.5551 54.11147 106.5579 C 54.59599 106.5614 54.67917 106.2882 54.82735 104.2059 C 54.90419 103.1262 55.00665 102.1788 55.05505 102.1005 C 55.12507 101.9872 55.44384 101.9718 56.61487 102.0251 C 57.4842 102.0646 58.08667 102.0522 58.08667 101.9946 C 58.08667 101.7621 57.82488 101.2418 57.31779 100.4667 C 56.69819 99.51969 56.70771 99.48961 57.66066 99.38171 C 58.36445 99.30202 58.62076 99.23669 58.60999 99.13969 C 58.60555 99.09981 58.19061 98.70847 57.68789 98.27009 C 56.27048 97.03406 56.14056 96.87968 55.86862 96.1085 C 55.68795 95.59614 55.47301 95.24492 55.10905 94.8673 C 54.72913 94.47312 54.56619 94.19998 54.46121 93.78135 C 54.26302 92.991 54.29213 90.26378 54.51015 89.19553 C 54.62481 88.63376 54.70499 87.45441 54.75325 85.62001 C 54.8209 83.04805 54.8118 82.83234 54.60247 82.04787 C 54.47994 81.58869 54.3083 80.85432 54.22104 80.41594 C 53.4385 76.48446 52.63434 73.03907 51.62895 69.31023 C 50.83913 66.38089 50.36877 63.98152 50.30602 62.56178 L 50.27549 61.87099 L 51.07256 61.85359 C 52.12081 61.83071 53.84077 61.38888 54.32787 61.01735 C 54.80192 60.65577 55.24376 60.04955 55.71958 59.10784 C 55.92632 58.69869 56.22679 58.1725 56.38729 57.93855 C 56.78039 57.36557 59.92875 51.19246 60.3564 50.15617 C 60.54379 49.7021 60.8271 49.11116 60.98599 48.843 C 61.4232 48.10514 61.35779 47.17351 60.67694 44.44194 C 60.36151 43.17643 60.33625 43.10548 59.61008 41.4458 C 59.29826 40.73315 59.04293 40.0397 59.04268 39.90482 C 59.04243 39.76994 59.30325 39.27487 59.62228 38.80468 L 60.20232 37.94978 L 60.10268 37.21056 C 59.91928 35.84984 59.90553 35.80665 59.63401 35.7385 C 59.49445 35.70347 59.23145 35.48693 59.04957 35.25729 C 58.85292 35.009 58.59126 34.81174 58.404 34.77061 C 58.23081 34.73257 58.06547 34.6632 58.03658 34.61647 C 57.93906 34.45867 58.29533 33.47895 58.52478 33.27395 C 58.65001 33.16208 58.99041 32.71253 59.28122 32.27496 C 59.57203 31.83739 59.92742 31.33524 60.07099 31.15907 C 61.04515 29.96375 61.79871 28.95768 61.85667 28.77503 C 61.89405 28.65728 61.87409 28.28753 61.81231 27.95337 C 61.75054 27.61921 61.7 27.05884 61.7 26.7081 C 61.7 26.28492 61.62758 25.92079 61.48475 25.62574 C 61.13769 24.9088 61.42965 24.39906 62.59166 23.69317 C 63.18274 23.33412 63.2447 23.25577 63.68811 22.30691 L 64.15807 21.30122 L 64.08464 20.10885 L 64.01122 18.91649 L 65.37633 17.7898 C 66.93177 16.50601 69.00445 15.21522 70.37962 14.67391 C 71.50881 14.22942 73.17023 13.71535 73.78168 13.62125 C 74.48282 13.51335 77.07784 13.77294 77.74745 14.01796 C 78.77715 14.39474 79.28141 14.50913 79.36117 14.38402 C 79.45149 14.24234 79.35603 13.7116 79.1755 13.35177 C 79.10086 13.20299 78.77399 12.74157 78.44913 12.32638 C 77.43195 11.02639 75.98643 10.10794 74.12083 9.576296 C 73.19537 9.312567 72.97331 9.291948 70.99902 9.286475 C 68.62684 9.279898 69.06611 9.196362 65.4196 10.34752 C 64.39671 10.67044 62.65115 11.23691 61.54058 11.60636 C 60.43002 11.9758 59.22675 12.33813 58.86666 12.41153 L 58.21195 12.54498 L 57.30775 11.88803 C 56.81044 11.52671 56.3785 11.23108 56.34789 11.23108 C 56.31727 11.23108 56.27751 11.43434 56.25954 11.68275 C 56.2306 12.08263 56.19451 12.13816 55.94466 12.16708 C 55.63034 12.20345 55.39173 11.94366 54.79218 10.91226 C 53.89669 9.371788 53.0851 8.71714 48.80943 6.086475 C 46.45175 4.635882 45.91109 4.387194 44.49362 4.101347 C 43.28901 3.858424 43.2748 3.858066 42.18061 4.04319 C 40.53507 4.321596 39.80594 4.613325 37.41627 5.94942 C 36.3712 6.533729 34.08375 8.063835 33.3247 8.686327 C 32.57274 9.302999 31.85495 9.721498 31.42447 9.794228 C 30.88402 9.885533 29.64242 9.610841 28.83568 9.22148 C 28.14968 8.890401 26.53483 7.659734 25.64637 6.79093 C 25.05448 6.212141 25.04417 6.250091 25.40595 7.676263 C 25.55136 8.249498 25.64801 8.740843 25.62071 8.768138 C 25.59341 8.795432 25.12535 8.523848 24.58056 8.164615 C 24.03577 7.805383 23.5559 7.511466 23.51418 7.511466 C 23.37392 7.511466 23.75866 8.282166 24.4991 9.484398 C 24.90348 10.14099 25.40276 11.01266 25.60863 11.42146 L 25.98293 12.16473 L 25.64195 12.21546 C 25.45441 12.24337 25.08577 12.2012 24.82274 12.12175 C 24.55971 12.0423 24.21404 11.97679 24.05458 11.97616 C 23.60096 11.97436 17.86323 10.10399 15.76252 9.273134 C 11.49872 7.586749 5.45546 4.263696 1.906128 1.653806 C 1.605919 1.43306 1.336136 1.276614 1.306602 1.306147 C 1.277069 1.33568 1.294205 1.488588 1.344696 1.645942 C 1.39518 1.803296 1.537895 2.290718 1.661835 2.729101 C 1.953362 3.760197 3.260322 6.645487 4.502899 9.001073 C 6.916321 13.57624 10.91648 18.09622 14.76028 20.59141 C 15.2756 20.92594 15.65441 21.22611 15.60205 21.25847 C 15.54969 21.29083 15.19979 21.36808 14.82449 21.43013 C 14.44921 21.49219 13.88014 21.60291 13.55991 21.67617 L 12.97767 21.80938 L 12.8521 22.87845 C 12.71003 24.08797 12.48089 25.0843 12.10046 26.14657 L 11.83981 26.87438 L 12.08672 27.04732 C 12.36008 27.23878 14.4839 28.93418 14.71053 29.14182 C 14.82997 29.25127 14.81477 29.35912 14.61915 29.79025 C 13.87637 31.42724 13.28542 33.73164 13.32825 34.82407 C 13.33628 35.02865 13.27055 35.97825 13.18221 36.9343 L 13.02157 38.67256 L 13.34489 39.35691 C 13.52274 39.7333 13.71993 40.28229 13.78311 40.57688 C 13.99823 41.57994 13.69036 49.4256 13.33965 51.87777 C 12.86155 55.22058 12.84582 57.96035 13.22915 71.11689 C 13.29957 73.53394 13.28485 74.05308 13.1116 75.2616 C 13.00266 76.02147 12.77075 77.64132 12.59624 78.86127 C 12.42175 80.08122 12.25738 81.11429 12.23099 81.15697 C 12.20461 81.19967 12.13357 81.75579 12.07314 82.39281 C 12.0127 83.02984 11.81941 84.26838 11.64362 85.14516 C 11.46783 86.02191 11.29317 87.20751 11.25549 87.77979 C 11.18443 88.85891 11.37508 92.88921 11.54561 93.91282 C 11.59916 94.23431 11.69379 94.99551 11.75588 95.6044 C 11.81798 96.21329 11.91456 96.797 11.97051 96.90156 C 12.10692 97.15646 13.57085 98.04819 14.56316 98.48085 C 15.0038 98.67297 15.36432 98.86996 15.36432 98.91863 C 15.36432 98.96729 14.95673 99.63359 14.45856 100.3993 C 13.9604 101.165 13.36724 102.1589 13.14043 102.6079 C 12.91361 103.057 12.55602 103.7085 12.34579 104.0558 C 12.13554 104.4031 11.96353 104.7202 11.96353 104.7605 C 11.96353 104.8009 12.18459 104.8895 12.45479 104.9576 C 12.72498 105.0256 13.18614 105.2029 13.47958 105.3516 C 13.84744 105.5381 14.09914 105.6008 14.29018 105.5536 C 14.44257 105.5159 15.28591 105.4519 16.16427 105.4113 L 17.76128 105.3374 L 18.42989 104.939 C 18.79763 104.7199 19.2127 104.512 19.35228 104.477 C 19.64257 104.4041 19.68381 104.5117 19.75082 105.5169 C 19.80572 106.3405 19.9221 106.4532 20.71762 106.4534 C 21.41397 106.4536 21.7042 106.5711 22.48936 107.1706 C 22.73815 107.3606 22.99554 107.516 23.06134 107.516 C 23.12715 107.516 23.52183 107.3039 23.93842 107.0446 Z M 22.3705 106.3356 C 22.22001 106.2316 21.96609 105.9577 21.80623 105.7271 C 21.53229 105.3318 21.52416 105.2871 21.66487 104.9506 C 21.74697 104.7541 22.11122 104.3184 22.47431 103.9824 C 23.06664 103.434 23.18177 103.3713 23.59488 103.3713 C 23.90948 103.3713 24.13473 103.4411 24.30617 103.5919 L 24.55706 103.8125 L 24.29137 103.7472 C 24.14525 103.7112 23.87566 103.6544 23.69228 103.6209 L 23.35888 103.5599 L 23.28588 104.3424 C 23.19446 105.3223 23.02383 106.461 22.95066 106.5794 C 22.89201 106.6743 22.8119 106.6406 22.3705 106.3356 Z M 53.68781 104.7529 C 53.60184 104.1488 53.35964 101.5833 53.09082 98.4295 C 52.97623 97.08513 52.83355 95.55477 52.77374 95.02871 C 52.50722 92.68455 51.54634 86.94769 50.7 82.64771 C 49.8828 78.49571 49.13625 74.50281 48.41999 70.4531 C 47.87543 67.37421 47.81903 67.18612 47.06355 65.92977 C 46.85938 65.59025 46.72104 65.28374 46.75614 65.24865 C 46.79124 65.21355 46.94559 65.10874 47.09916 65.01575 C 47.25272 64.92276 47.43243 64.6829 47.4985 64.48271 C 47.68216 63.92622 47.85603 63.96215 48.1566 64.6187 C 48.52196 65.41676 48.89056 66.94315 49.22538 69.04454 C 49.41573 70.2392 49.65144 71.2384 49.96499 72.17964 C 50.38697 73.4464 50.46127 73.84385 50.85905 76.96201 C 51.48675 81.88255 51.43793 81.59842 51.6907 81.80309 C 51.86432 81.94367 51.95024 82.21861 52.07518 83.03328 C 52.16367 83.6103 52.30632 84.53674 52.39218 85.09203 C 52.47805 85.64731 52.57991 86.31683 52.61853 86.57987 C 52.65716 86.8429 52.80845 87.4407 52.95475 87.9083 C 53.18028 88.62917 53.23386 89.07374 53.30695 90.83086 C 53.44822 94.22712 53.72313 100.1015 53.83663 102.1491 C 53.96573 104.4783 53.96889 105.6092 53.84568 105.3905 C 53.79628 105.3028 53.72523 105.0159 53.68781 104.7529 Z M 13.64572 104.8958 C 13.50875 104.7718 13.45138 104.569 13.45138 104.2087 C 13.45138 103.6276 13.71546 103.25 14.53153 102.6642 C 14.9623 102.355 15.02276 102.3397 15.31418 102.4653 C 15.64899 102.6096 16.2891 103.2258 16.19843 103.3165 C 16.16888 103.3461 15.95715 103.2283 15.72794 103.0549 C 15.49872 102.8814 15.26226 102.7382 15.2025 102.7366 C 15.14272 102.735 14.84784 103.2597 14.5472 103.9026 C 14.24657 104.5456 13.96448 105.0717 13.92033 105.0717 C 13.87619 105.0717 13.75261 104.9925 13.64572 104.8958 Z M 19.98725 103.3447 C 20.02795 102.9794 20.14611 102.4892 20.24983 102.2554 C 20.47886 101.7391 21.97637 99.93692 22.67133 99.3412 C 23.35084 98.75873 23.3976 99.02311 22.76133 99.84998 C 22.49609 100.1947 21.85641 101.1399 21.33982 101.9506 C 20.09843 103.8985 20.02465 104.0089 19.9646 104.0089 C 19.93636 104.0089 19.94655 103.71 19.98725 103.3447 Z M 14.79132 100.7941 C 14.83378 100.721 15.10892 100.3504 15.40276 99.97048 C 15.69659 99.59055 15.94801 99.26337 15.96148 99.24342 C 15.97493 99.22347 16.09462 99.24165 16.22745 99.2838 C 16.45074 99.35467 16.40528 99.41917 15.62437 100.1395 C 14.74586 100.9498 14.66299 101.0149 14.79132 100.7941 Z M 25.07301 99.41254 C 24.89546 99.22257 24.65121 98.92226 24.53023 98.74517 L 24.31026 98.42321 L 24.56917 97.15105 C 25.14651 94.31423 26.4501 86.77998 26.52692 85.83594 C 26.67418 84.0264 26.36309 81.22195 25.70525 78.4287 C 25.55092 77.7734 25.38487 77.26182 25.33625 77.29187 C 25.28763 77.32191 25.24784 77.60507 25.24784 77.9211 C 25.24784 79.70966 24.41038 83.66875 22.88817 89.07634 C 22.45787 90.60496 20.67007 95.77032 19.54567 98.73363 L 19.34961 99.25031 L 18.81824 99.19479 C 18.52598 99.16425 18.01148 99.03576 17.6749 98.90926 L 17.06294 98.67925 L 17.39706 98.214 C 17.68034 97.81954 17.74345 97.61457 17.81181 96.86697 C 17.90699 95.82624 18.34997 93.1704 18.7034 91.52164 C 18.84122 90.87868 18.93404 90.33134 18.90966 90.30531 C 18.88529 90.2793 18.53048 90.59016 18.12121 90.99611 C 17.25986 91.85046 17.31642 91.7037 16.30196 95.71654 C 15.95511 97.08852 15.65102 98.23135 15.62619 98.25618 C 15.60136 98.281 15.28121 98.15341 14.91473 97.97263 C 14.14409 97.59248 12.84499 96.55729 12.7122 96.21754 C 12.66224 96.08973 12.51443 94.93449 12.38372 93.65033 C 12.1904 91.75108 12.15948 90.99767 12.21803 89.61189 C 12.30817 87.47848 12.85227 83.00359 13.55585 78.60926 C 14.26709 74.16704 14.93015 68.76984 15.25314 64.79356 C 15.31249 64.06292 15.41553 63.053 15.48212 62.5493 C 15.66135 61.19369 15.50205 61.05094 15.04971 62.16176 C 14.436 63.6688 13.78735 65.0061 13.67008 65.0061 C 13.44683 65.0061 13.6209 54.87445 13.87095 53.31587 C 13.97735 52.65258 14.19189 49.75263 14.41736 45.92979 C 14.47598 44.93611 14.58994 43.11882 14.67065 41.89135 L 14.81737 39.65958 L 14.45319 38.84914 C 14.18752 38.25792 14.089 37.88767 14.089 37.48036 C 14.089 36.53208 14.77726 33.77238 15.54093 31.65856 L 15.82069 30.88423 L 16.08584 31.12719 C 16.46712 31.47653 17.22503 32.66481 18.02118 34.16148 C 18.51887 35.09709 18.76646 35.4603 18.90694 35.4609 C 19.01417 35.46135 19.56414 35.26843 20.12909 35.03218 L 21.15627 34.60263 L 21.94766 34.77839 C 22.5296 34.90763 22.96099 34.93478 23.57759 34.881 C 24.29079 34.81878 24.44651 34.83535 24.61943 34.99185 C 24.88088 35.22845 24.87611 35.28819 24.55844 35.75568 C 24.41307 35.96961 24.32938 36.17856 24.37246 36.22002 C 24.54552 36.38659 26.16643 36.64309 26.62941 36.57717 C 27.08179 36.51277 27.96461 36.14941 28.34336 35.87172 C 28.48203 35.77006 28.61616 35.79183 29.01966 35.9815 C 29.91214 36.40102 34.48815 37.52433 38.18484 38.23137 C 39.16533 38.4189 39.22525 38.48788 39.21062 39.41233 C 39.17891 41.41716 38.65144 48.97816 38.52954 49.1754 C 38.47023 49.27136 38.3546 49.23518 38.09201 49.03849 C 37.30181 48.44661 37.97225 48.58227 27.99044 46.9945 C 25.96258 46.67194 24.18398 46.40802 24.03798 46.40802 C 23.67621 46.40802 23.59599 46.23384 23.88622 46.07852 C 24.28286 45.86625 25.90278 45.85083 28.70176 46.03271 C 36.11825 46.51461 35.98755 46.50953 36.50722 46.33616 C 37.29819 46.07227 38.32847 45.5521 38.39294 45.3841 C 38.46812 45.18819 38.14779 44.46378 37.83832 44.12987 C 37.64999 43.92665 37.45251 43.86401 36.81036 43.80384 C 36.07747 43.73516 35.51397 43.76875 32.36823 44.06857 C 30.96164 44.20263 25.60809 44.48892 23.00491 44.56929 C 20.5014 44.64658 20.53451 44.6288 20.48108 45.92537 C 20.44913 46.70081 20.41086 46.85932 20.22402 46.9902 C 20.00534 47.14337 20.00528 47.14566 20.20843 47.59659 C 20.32059 47.84554 20.5598 48.29421 20.74002 48.59363 C 21.34543 49.59951 21.29179 49.75588 20.56619 49.10035 C 19.93155 48.52699 19.65089 47.965 19.57842 47.12248 C 19.49512 46.154 17.70197 40.83844 17.33302 40.4663 L 17.0792 40.21028 L 17.28213 40.8914 C 17.39375 41.26601 17.96369 43.28958 18.54868 45.38821 C 19.13366 47.48683 19.6851 49.31501 19.77409 49.45083 C 20.02112 49.82784 21.42911 50.99448 22.94325 52.07675 L 24.30514 53.05019 L 25.20159 54.48005 C 25.79261 55.42276 26.09804 56.0152 26.09804 56.21893 C 26.09804 56.46241 25.93383 56.68877 25.32359 57.28652 C 24.54764 58.04658 24.29137 58.51919 24.29137 59.19011 C 24.29137 59.35104 24.65606 60.01205 25.19336 60.82503 C 25.73057 61.63789 26.09435 62.29726 26.0929 62.4555 C 26.09156 62.60163 26.02118 63.00813 25.9365 63.35884 C 25.69203 64.37129 25.73531 66.03413 26.04159 67.39799 C 26.39462 68.96997 26.5862 70.31154 26.79272 72.65788 C 26.95393 74.48952 26.98648 74.65623 27.26871 75.09591 C 27.55524 75.54228 27.57459 75.5538 27.62581 75.30846 C 27.6556 75.16579 27.73108 72.99265 27.79355 70.47924 C 27.85602 67.96584 27.97867 64.45081 28.06612 62.66805 C 28.15356 60.88529 28.25396 58.38651 28.28922 57.1152 C 28.33419 55.49362 28.38947 54.80391 28.47441 54.80432 C 28.541 54.80464 28.77212 54.85397 28.98801 54.91393 C 29.45378 55.04329 29.44884 55.02108 29.59008 57.61512 C 29.66383 58.96972 29.65326 59.38039 29.53747 59.6575 C 29.45776 59.84827 29.39255 60.19058 29.39255 60.41819 C 29.39255 60.95187 29.94914 64.06316 30.81217 68.35374 L 31.49622 71.75454 L 31.29379 73.72062 C 30.88383 77.70234 29.35868 88.88346 29.11584 89.68759 C 29.08508 89.78944 28.86461 90.11984 28.62591 90.42183 L 28.19191 90.97089 L 28.16605 92.25587 C 28.12389 94.35157 27.81349 96.17754 27.24764 97.65855 L 26.93313 98.48174 L 27.16314 98.80476 C 27.35902 99.07985 27.37198 99.15328 27.25043 99.29972 C 27.0232 99.57353 26.51323 99.74927 25.93291 99.75377 C 25.4614 99.75742 25.35639 99.71575 25.07301 99.41254 Z M 38.29057 97.18078 C 38.26708 96.58164 38.16642 94.25056 38.06689 92.00059 L 37.88593 87.90971 L 38.16801 86.58058 C 38.32315 85.84955 38.51061 85.13457 38.58458 84.99174 C 38.71721 84.73565 38.71997 84.73786 38.78389 85.15115 C 38.81953 85.38168 38.92203 86.59846 39.01168 87.85517 C 39.10132 89.11188 39.2237 90.54658 39.28363 91.04341 C 39.42434 92.20995 40.1701 95.6902 40.56389 97.018 C 40.73236 97.58604 40.8702 98.10015 40.8702 98.16045 C 40.8702 98.22966 40.40248 98.27009 39.60174 98.27009 L 38.33329 98.27009 L 38.29057 97.18078 Z M 40.56227 92.79694 C 40.27057 89.25472 40.21421 87.018 40.27705 81.47646 C 40.34028 75.90037 40.25937 72.59319 40.01059 70.58553 C 39.9454 70.05946 39.90925 69.36602 39.93025 69.04454 L 39.96844 68.46003 L 40.09581 68.88513 C 40.32315 69.64398 41.00463 74.46399 41.20022 76.69647 C 41.3199 78.06248 41.22667 83.07333 40.99656 87.64262 C 40.91282 89.30547 40.9098 92.55394 40.99073 93.91283 C 41.02729 94.52657 41.03006 95.24391 40.99691 95.50695 C 40.93791 95.97495 40.93392 95.96697 40.81071 95.13499 C 40.74145 94.66737 40.62965 93.61526 40.56227 92.79694 Z M 46.55328 63.26271 C 46.47013 63.06372 46.3581 62.70504 46.30431 62.46566 C 46.19588 61.98309 46.23367 61.96064 46.92236 62.09838 C 47.22461 62.15883 47.25494 62.19709 47.19616 62.44377 C 47.10508 62.82605 46.8024 63.62453 46.74857 63.62453 C 46.7243 63.62453 46.63642 63.46171 46.55328 63.26271 Z M 38.50505 62.16324 C 38.33191 61.7794 38.27604 61.44197 38.2719 60.7551 C 38.2668 59.90673 38.28052 59.84976 38.49743 59.81887 C 38.76919 59.78017 39.46122 60.11205 39.73114 60.41053 C 39.91411 60.61285 39.91124 60.62601 39.6466 60.79941 C 39.32402 61.01077 39.22052 61.23293 39.0607 62.05696 C 38.99552 62.39306 38.89506 62.66805 38.83747 62.66805 C 38.77988 62.66805 38.63029 62.44088 38.50505 62.16324 Z M 46.46449 61.49902 C 45.95234 61.49902 45.94742 61.49577 46.0209 61.20677 C 46.12056 60.81482 46.12119 60.58285 46.02427 59.98461 L 45.94248 59.4798 L 46.74771 59.4798 C 47.19059 59.4798 47.58099 59.52518 47.61526 59.58064 C 47.70943 59.733 47.81709 61.35024 47.74549 61.53683 C 47.69529 61.66765 47.61358 61.68005 47.33265 61.59948 C 47.14 61.54423 46.74933 61.49902 46.46449 61.49902 Z M 47.92602 59.18736 L 47.45922 58.79715 L 47.45841 57.51778 C 47.45797 56.81414 47.41188 55.84075 47.356 55.35471 C 47.25836 54.50552 47.26675 54.43988 47.57076 53.67457 C 48.1599 52.19149 48.36296 51.87221 48.83784 51.68219 C 49.07563 51.58705 49.33627 51.5092 49.41705 51.5092 C 49.6025 51.5092 49.79726 52.05639 49.79726 52.57742 C 49.79726 52.92279 49.75557 52.99079 49.48631 53.08466 C 49.31528 53.14428 49.10306 53.30438 49.01471 53.44045 C 48.7407 53.86243 48.41569 55.24339 48.41569 55.98568 C 48.41569 56.67513 48.42821 56.70761 48.89392 57.22559 L 49.37216 57.75751 L 49.37216 58.65251 C 49.37216 59.59616 49.18666 60.40556 48.80505 61.12706 L 48.5802 61.55217 L 48.48651 60.56485 L 48.39282 59.57756 L 47.92602 59.18736 Z M 41.08542 60.96765 C 40.74031 60.96765 40.7772 60.69796 41.21691 60.00637 C 41.45455 59.63261 41.71193 59.11763 41.78888 58.86197 C 41.91574 58.44045 41.90701 58.34114 41.6953 57.79603 C 41.39949 57.03442 41.36326 55.09387 41.63335 54.47783 C 41.78419 54.13375 41.8718 54.0778 42.58358 53.87081 C 44.10271 53.42904 44.03812 53.4036 43.43171 54.20478 C 42.965 54.82138 42.67934 55.43724 42.67746 55.83086 C 42.67713 55.89895 42.86816 56.31572 43.10196 56.75702 C 43.56356 57.62827 43.61426 57.99518 43.40769 58.96977 C 43.2621 59.65668 42.9978 60.19502 42.64415 60.52504 C 42.3441 60.80503 41.63359 61.09007 41.41945 61.01637 C 41.3416 60.98957 41.19129 60.96765 41.08542 60.96765 Z M 36.73871 58.97501 C 36.56984 58.55971 36.40667 57.62 36.40667 57.06276 C 36.40667 56.65307 36.43227 56.5978 36.59265 56.66131 C 36.69493 56.70183 37.04166 56.83361 37.36314 56.95416 C 37.68462 57.07471 37.9806 57.22413 38.02087 57.28619 C 38.10202 57.41124 38.42588 58.78768 38.42588 59.00755 C 38.42588 59.15793 38.1242 59.22625 37.34946 59.25133 C 36.90584 59.26569 36.84589 59.23857 36.73871 58.97501 Z M 54.20609 56.53068 C 54.24712 56.36994 54.34531 55.7602 54.42428 55.17569 C 54.50325 54.59117 54.69007 53.75784 54.83942 53.32383 C 54.98878 52.88982 55.11098 52.49846 55.11098 52.45412 C 55.11098 52.40979 54.97946 52.35839 54.81872 52.3399 C 54.55742 52.30983 54.52301 52.25861 54.49387 51.8564 C 54.47095 51.53995 54.39304 51.35873 54.23112 51.24533 C 53.89598 51.01059 53.75521 51.04477 53.56826 51.4063 L 53.40165 51.72849 L 53.07945 51.53914 C 52.59921 51.25691 51.55984 50.1348 51.29154 49.60889 C 51.1621 49.35517 50.98649 48.81327 50.9013 48.40469 C 50.74342 47.6475 50.35775 46.75896 50.0908 46.53741 C 50.00933 46.4698 49.68122 46.38375 49.36168 46.34619 C 48.89417 46.29124 48.60493 46.33378 47.88084 46.56397 C 46.70085 46.93909 45.29708 47.03395 44.49081 46.79304 C 43.54312 46.50988 41.82667 46.60736 41.82667 46.94434 C 41.82667 47.12952 41.05989 47.36449 40.4556 47.36449 L 39.80745 47.36449 L 39.8082 46.11576 C 39.80862 45.42896 39.83945 44.54422 39.87671 44.14968 L 39.94446 43.43233 L 40.48703 43.43295 C 41.26254 43.43385 42.98816 43.70975 44.1465 44.01805 C 44.91763 44.2233 45.40094 44.28252 46.30495 44.28252 C 47.17569 44.28252 47.55564 44.32655 47.80988 44.45688 C 48.36161 44.73974 51.21092 46.65822 52.32151 47.49464 C 53.6383 48.48635 55.31417 50.08295 55.49802 50.52091 C 55.70708 51.01889 55.79881 53.11196 55.65313 54.0598 C 55.51052 54.9876 55.19929 55.98631 54.89967 56.47755 C 54.7482 56.7259 54.61069 56.82294 54.41024 56.82294 C 54.15889 56.82294 54.13881 56.79419 54.20609 56.53068 Z M 56.15507 52.27969 C 56.10786 50.34002 56.02182 50.12233 54.74223 48.70555 C 54.23444 48.14332 53.84087 47.68332 53.86762 47.68332 C 53.89438 47.68332 54.18156 47.80476 54.50579 47.95321 C 54.83002 48.10165 55.30125 48.25825 55.55295 48.30122 L 56.01058 48.37934 L 56.14367 49.01437 C 56.21687 49.36363 56.38218 50.07981 56.51103 50.60587 C 56.889 52.14904 56.79895 53.84724 56.33914 53.84724 C 56.22374 53.84724 56.18524 53.51931 56.15507 52.27969 Z M 44.80235 41.64076 C 44.80235 41.51275 44.56878 41.30045 44.13814 41.03704 C 43.77282 40.81359 43.10375 40.2729 42.65133 39.8355 C 41.83053 39.04195 41.82827 39.04067 41.6038 39.24362 C 41.37957 39.44637 41.37715 39.44517 40.84954 38.87156 C 40.18409 38.14808 40.12627 37.98964 40.12627 36.88951 L 40.12627 35.9931 L 40.73735 36.00085 C 41.76271 36.01387 42.44479 36.15025 42.70442 36.39417 C 42.87595 36.55531 42.9915 36.59208 43.1036 36.52121 C 43.34478 36.36871 43.93996 36.39814 45.14235 36.62202 C 45.74444 36.73412 46.47555 36.85831 46.76703 36.89799 C 47.05852 36.93768 47.4308 37.03933 47.59433 37.12389 C 47.86282 37.26273 47.91963 37.25806 48.18024 37.07575 C 48.40752 36.91674 48.73697 36.86 49.73116 36.8086 C 50.95452 36.74537 50.98799 36.74942 50.81561 36.93991 C 50.57491 37.20587 48.64487 37.60538 47.59005 37.60758 C 47.10069 37.6086 46.42461 37.52072 45.91824 37.39025 C 44.68658 37.07293 43.08851 36.81328 42.99358 36.91505 C 42.9486 36.96326 42.88102 37.14918 42.8434 37.32821 L 42.77499 37.65371 L 43.65583 37.77361 C 44.14029 37.83955 44.84179 37.99196 45.21473 38.11231 C 45.66383 38.25725 46.17519 38.33114 46.72914 38.33114 L 47.56549 38.33114 L 47.56549 38.7031 L 47.56549 39.07506 L 46.9449 39.07506 C 46.38301 39.07506 46.31264 39.10067 46.20098 39.34575 C 46.0195 39.74405 46.04611 39.81883 46.3699 39.82043 C 46.98331 39.82348 47.14039 39.92446 47.14039 40.31569 C 47.14039 40.5168 47.0856 40.89893 47.01863 41.16488 C 46.9003 41.63485 46.88704 41.64684 46.54698 41.59166 C 46.31539 41.55408 46.15453 41.58615 46.07122 41.68654 C 45.99075 41.7835 45.73922 41.8382 45.37385 41.8382 C 44.88777 41.8382 44.80235 41.8087 44.80235 41.64076 Z M 37.25475 35.89929 C 33.62458 34.96126 30.84711 33.43768 28.25941 30.96487 C 27.16695 29.92093 26.25461 28.78413 25.83468 27.94366 C 25.50794 27.28967 25.25312 25.626 25.24992 24.12587 L 25.24784 23.15181 L 24.44624 22.27871 C 24.00536 21.7985 23.0498 20.77596 22.32276 20.00639 C 21.04749 18.6565 20.97524 18.59891 20.27378 18.37299 C 19.43517 18.1029 18.56317 17.52742 16.51776 15.89422 C 14.49146 14.27627 14.49358 14.14942 16.53333 14.96056 C 17.77272 15.45343 17.99511 15.50698 18.36887 15.4026 C 18.63454 15.32841 18.53131 15.26347 17.31605 14.74042 C 13.67772 13.17447 10.34993 10.93373 7.961731 8.441781 C 7.105171 7.548015 6.437248 6.714359 6.437248 6.539047 C 6.437248 6.364393 6.739204 6.453215 7.766739 6.930128 C 8.773712 7.397496 8.808197 7.405497 8.949051 7.20441 C 9.089043 7.004524 9.13221 7.018003 10.18343 7.589813 C 13.39021 9.334154 18.66355 11.36025 24.45078 13.07153 L 26.36372 13.63719 L 26.39677 14.15082 C 26.43204 14.69887 26.33424 14.8399 25.91687 14.84279 C 25.57888 14.84514 25.53264 15.25993 25.66788 17.07619 C 25.78172 18.60493 25.83392 18.77711 26.22277 18.90673 C 26.27541 18.92428 26.2452 19.45248 26.15466 20.0974 C 26.06517 20.73492 26.01229 21.27687 26.03716 21.30173 C 26.11775 21.38232 26.38757 20.76361 26.67491 19.83934 C 26.95429 18.94069 26.95559 18.92054 26.92436 15.96031 L 26.89297 12.98461 L 26.27571 11.65983 C 25.93622 10.93121 25.62975 10.19149 25.59465 10.01603 L 25.53084 9.697009 L 25.94728 10.03818 C 26.17632 10.22582 26.9325 10.92028 27.62767 11.58142 L 28.89161 12.7835 L 28.97874 14.05308 C 29.20074 17.28798 29.18686 17.19467 29.43424 17.11557 C 30.45743 16.78843 30.82264 16.75986 33.9959 16.75863 C 35.99805 16.75786 37.34889 16.7156 37.47168 16.64988 C 37.61179 16.5749 37.97118 16.59084 38.66027 16.70259 C 39.90703 16.9048 39.84236 16.91093 39.76381 16.59796 C 39.6722 16.23296 39.93984 16.24556 40.69287 16.64168 L 41.28106 16.95108 L 41.39137 16.63465 C 41.49089 16.34917 41.46212 16.26818 41.0971 15.80639 C 40.87458 15.52489 40.46494 14.90636 40.18678 14.43189 C 39.90861 13.95742 39.64018 13.54398 39.59027 13.51313 C 39.49651 13.45518 38.73131 13.55925 37.12859 13.84795 L 36.20327 14.01462 L 36.03631 14.58894 C 35.84724 15.23933 35.88485 15.2266 34.68042 15.04747 L 33.90197 14.93169 L 32.52402 15.56618 C 30.54295 16.47839 30.66784 16.46594 30.66784 15.75128 C 30.66784 15.42385 30.5684 14.5114 30.44687 13.72361 C 30.32532 12.93581 30.24163 12.25018 30.26088 12.19998 C 30.28013 12.14978 31.12263 11.40909 32.1331 10.55401 C 34.33398 8.691586 34.30138 8.701331 35.27341 9.615013 C 35.63366 9.953648 36.10916 10.36365 36.33006 10.52612 C 37.17864 11.15028 37.35136 11.54781 36.93692 11.92288 C 36.72972 12.11039 36.71585 12.10928 36.4784 11.88621 C 36.34374 11.7597 36.1943 11.65618 36.14633 11.65618 C 36.09836 11.65618 35.51857 11.94911 34.85792 12.30714 L 33.65673 12.9581 L 33.98621 13.55587 C 34.16742 13.88464 34.3497 14.19302 34.39127 14.24116 C 34.50545 14.37339 36.4143 13.3763 36.77862 12.99412 C 36.95398 12.81018 37.27678 12.52386 37.49598 12.35786 C 38.10406 11.89735 38.05066 11.67603 36.9763 10.20414 C 36.47128 9.512259 35.94522 8.79819 35.80727 8.61732 C 35.45895 8.160601 35.48952 8.004255 36.00813 7.590127 C 37.03503 6.770122 39.6036 5.340683 39.88799 5.430944 C 40.10954 5.501263 40.65764 6.304484 40.65764 6.558844 C 40.65764 6.681679 40.46272 6.786551 39.99343 6.916213 C 39.1658 7.144877 38.00765 7.696824 37.31034 8.194905 C 36.57396 8.720886 36.86054 8.689562 38.87528 8.023843 C 39.79464 7.720064 40.5664 7.492463 40.5903 7.518062 C 40.61421 7.54366 41.06425 8.426291 41.5904 9.47946 C 42.39984 11.09971 42.59379 11.41112 42.85105 11.50355 C 43.12994 11.60375 43.08477 11.62438 42.3049 11.75288 C 40.07032 12.12108 39.12835 12.37254 38.61186 12.73874 C 38.14248 13.07153 38.27408 13.16136 38.87754 12.92009 C 39.75611 12.56884 41.37401 12.1928 42.32562 12.11867 L 43.19654 12.05082 L 43.26706 12.35831 C 43.30585 12.52742 43.44948 13.12012 43.58624 13.6754 C 43.723 14.23069 43.98114 15.35454 44.15987 16.17286 C 44.3386 16.99117 44.50935 17.76831 44.53933 17.89982 C 44.60851 18.20328 44.94474 18.21332 45.416 17.92599 C 45.60737 17.80931 45.78479 17.71384 45.81026 17.71384 C 45.83573 17.71384 45.91237 17.90011 45.98058 18.12776 C 46.0998 18.52571 46.12907 18.5465 46.73886 18.66647 C 47.2968 18.77624 47.39699 18.76967 47.57141 18.61182 C 47.72755 18.47052 47.8751 18.44819 48.26569 18.50676 C 48.53848 18.54767 48.83016 18.60742 48.91385 18.63953 C 49.00645 18.67507 49.08728 18.61658 49.12035 18.49013 C 49.16072 18.33573 49.35026 18.24033 49.85793 18.11886 C 50.46566 17.97346 50.73362 18.00746 50.4349 18.19208 C 49.99335 18.46497 51.09606 18.67054 51.70929 18.42965 C 52.10684 18.27349 52.12772 18.27692 52.43943 18.54931 C 52.69368 18.77151 52.87277 19.15944 53.30195 20.41772 C 53.90495 22.18562 53.91182 22.38733 53.38936 22.98238 C 52.96943 23.46066 51.39753 24.76956 51.32735 24.69938 C 51.22434 24.59638 51.60089 23.85887 52.03461 23.31413 C 52.42113 22.82869 52.44724 22.76135 52.27517 22.69352 C 52.16901 22.65166 52.04774 22.61406 52.00569 22.60995 C 51.96363 22.60584 51.69431 22.9506 51.4072 23.37607 C 50.83361 24.2261 50.53991 24.53646 50.54298 24.28932 C 50.54398 24.2091 50.68664 23.90435 50.86 23.61209 C 51.03336 23.31984 51.17601 22.92626 51.17701 22.73748 C 51.17856 22.44467 51.24139 22.36233 51.60476 22.17695 C 52.02309 21.96354 52.02946 21.95163 51.9613 21.51057 C 51.87321 20.9406 51.73938 20.57911 51.5313 20.34918 C 51.39764 20.20149 51.38925 20.10461 51.48604 19.82695 C 51.5514 19.63946 51.59271 19.47597 51.57783 19.46366 C 51.56295 19.45135 51.39289 19.36095 51.19992 19.26278 C 51.00695 19.16462 50.82249 19.01506 50.79002 18.93044 C 50.7209 18.75031 50.11607 18.71961 50.11607 18.89623 C 50.11607 18.96204 50.2437 19.55778 50.39968 20.22011 L 50.68329 21.42434 L 50.22237 22.65556 C 49.91423 23.47866 49.71692 23.86969 49.62711 23.83523 C 49.55323 23.80688 49.19065 23.74977 48.82139 23.70833 C 48.35011 23.65545 48.10861 23.57444 48.01113 23.43656 C 47.91211 23.29649 47.73857 23.24013 47.40633 23.24013 C 47.15005 23.24013 46.91143 23.19328 46.87604 23.13601 C 46.84065 23.07875 46.74122 22.49291 46.6551 21.83414 C 46.45695 20.31856 46.45723 20.31932 46.01902 20.04849 C 45.6714 19.83365 45.65246 19.791 45.65092 19.21959 C 45.65002 18.88826 45.61055 18.55613 45.5632 18.48152 C 45.51585 18.40692 45.22539 18.31606 44.91772 18.27962 C 44.43927 18.22295 44.32582 18.16378 44.1337 17.87068 C 43.92874 17.55802 43.84812 17.52225 43.21325 17.46227 C 42.83056 17.42611 42.3142 17.39619 42.06578 17.39577 C 41.66697 17.39511 41.61453 17.423 41.61765 17.63413 C 41.61959 17.76565 41.71784 17.98937 41.83598 18.13129 C 42.05019 18.38861 42.05214 18.38883 42.5498 18.21047 C 43.24395 17.96168 43.39854 17.98136 44.07526 18.40465 L 44.66996 18.77664 L 44.61798 19.23776 C 44.57417 19.62648 44.6339 19.83092 44.99831 20.5396 C 45.54373 21.60029 46.35216 24.51989 46.18627 24.82985 C 45.97699 25.2209 45.87109 25.57817 45.96446 25.57817 C 46.01621 25.57817 46.30554 25.38295 46.6074 25.14434 C 47.31401 24.58579 47.74912 24.40915 48.41834 24.40915 C 49.01214 24.40915 49.87806 24.59073 50.09476 24.76069 C 50.17853 24.82639 50.22035 25.03823 50.20104 25.29906 C 50.17448 25.6579 50.12531 25.73939 49.90408 25.79115 C 49.64561 25.85162 49.45617 26.21582 49.68319 26.21582 C 49.83214 26.21582 50.22235 26.60761 50.22235 26.75717 C 50.22235 26.83556 50.04931 26.84962 49.69098 26.80033 C 49.19925 26.7327 49.15961 26.74385 49.15961 26.94977 C 49.15961 27.11251 49.22672 27.17229 49.40943 27.17229 C 49.84451 27.17229 50.2932 27.38577 50.44183 27.66348 C 50.52085 27.81113 50.77878 28.06164 51.01501 28.22016 C 51.36061 28.45207 52.02108 29.37232 51.89951 29.45255 C 51.88306 29.46341 51.59963 29.68841 51.26966 29.95255 C 50.71643 30.3954 50.59645 30.44325 49.72868 30.56705 C 48.84857 30.69261 48.74636 30.68675 48.14999 30.47658 C 47.79929 30.35298 47.14026 30.0357 46.68547 29.77151 C 46.23069 29.50733 45.71659 29.26277 45.54303 29.22806 C 45.28524 29.1765 45.22745 29.11161 45.22745 28.87374 C 45.22745 28.24098 46.08264 27.65352 47.16975 27.53951 C 47.66462 27.48761 47.81677 27.42453 47.95464 27.21412 C 48.15548 26.90758 48.11919 26.85293 47.65123 26.75722 C 47.19308 26.66352 47.13655 26.38128 47.54724 26.23811 C 47.80866 26.14698 47.8501 26.08479 47.80537 25.85081 C 47.76826 25.65666 47.69959 25.58678 47.57909 25.6205 C 47.48393 25.64713 47.1995 25.70109 46.94701 25.74041 C 46.6939 25.77983 46.46092 25.88232 46.42771 25.96887 C 46.39458 26.05519 46.24249 26.17829 46.08972 26.24242 L 45.81196 26.35901 L 46.18272 26.42026 C 46.65339 26.49801 46.75258 26.81339 46.339 26.91719 C 46.14312 26.96635 45.93462 26.91999 45.66773 26.76793 C 45.32248 26.57124 45.27708 26.49492 45.2482 26.06277 C 45.22159 25.66467 45.1789 25.57817 45.00908 25.57817 C 44.82153 25.57817 44.80235 25.49934 44.80235 24.72828 C 44.80235 23.89597 44.79414 23.86929 44.40519 23.43877 C 44.18674 23.19699 43.51686 22.61575 42.91657 22.14714 C 41.88449 21.34148 41.83669 21.28704 42.03762 21.1463 C 42.2877 20.97113 42.3806 20.80975 42.67398 20.04084 L 42.89279 19.46737 L 42.65198 19.7357 C 42.51953 19.88328 42.25973 20.18824 42.07462 20.4134 C 41.76671 20.78794 41.70599 20.81676 41.361 20.75204 C 41.15361 20.71313 40.95859 20.64032 40.92764 20.59023 C 40.89668 20.54013 41.03689 20.2585 41.23922 19.96437 L 41.60708 19.42958 L 41.31321 19.36504 C 41.15159 19.32954 40.74427 19.13479 40.40807 18.93227 C 39.69875 18.50498 39.72434 18.51013 39.46725 18.74279 C 39.28539 18.90738 37.27595 19.25621 37.16261 19.14287 C 37.13889 19.11914 37.24671 18.90747 37.40222 18.67247 C 37.55774 18.43748 37.63783 18.24521 37.58021 18.24521 C 37.52259 18.24521 37.11298 18.32486 36.66997 18.4222 C 35.94435 18.58165 35.54147 18.58712 32.6067 18.47742 C 28.97783 18.34177 29.12661 18.32012 28.63061 19.05598 C 28.41632 19.3739 28.33755 19.6546 28.28395 20.29139 L 28.21458 21.11541 L 28.76014 22.1775 C 29.13272 22.90282 29.40372 23.29749 29.61481 23.42219 C 29.82067 23.54379 29.92392 23.6907 29.92392 23.862 C 29.92392 24.10715 29.90061 24.11602 29.42688 24.05109 C 28.8294 23.96919 28.58125 23.76772 28.29714 23.13385 L 28.08277 22.65562 L 27.98589 22.94484 C 27.90701 23.18031 27.95115 23.35065 28.22333 23.86131 C 28.65033 24.66245 29.0805 25.07463 29.83944 25.40978 L 30.44574 25.67754 L 30.64973 25.38874 C 30.76192 25.2299 31.02374 24.76109 31.23154 24.34694 C 31.68444 23.44432 32.41319 22.73853 33.67233 21.98306 C 35.20794 21.06172 35.35157 21.00836 36.29615 21.00836 C 37.11499 21.00836 37.15059 21.01846 37.15059 21.25093 C 37.15059 21.46617 37.0125 21.53895 35.92541 21.89674 C 34.7094 22.29695 34.69012 22.30854 33.34756 23.44533 C 31.651 24.88188 31.67323 24.85568 31.94351 25.10027 C 32.07151 25.21611 32.15569 25.42746 32.15569 25.63299 C 32.15569 25.95635 32.2003 25.99418 33.03245 26.37617 C 34.31337 26.96419 36.46959 27.70908 37.20372 27.81718 C 37.58626 27.8735 38.5174 27.86885 39.53107 27.80553 C 40.46041 27.74748 41.23866 27.71788 41.26053 27.73975 C 41.41114 27.89036 41.06505 28.13022 40.39304 28.34098 C 39.6489 28.57435 39.50048 28.5841 37.63466 28.52204 C 36.55011 28.48597 35.66274 28.49643 35.66274 28.54528 C 35.66274 28.77267 36.03284 28.87203 37.12749 28.93851 C 38.15231 29.00076 38.34141 29.04161 38.52902 29.24132 L 38.7459 29.47217 L 38.47902 29.72288 L 38.21214 29.9736 L 38.44075 30.21696 L 38.66937 30.46031 L 38.36164 30.57757 C 37.76501 30.80491 37.50546 30.80835 37.08655 30.59443 C 36.57801 30.33475 35.60661 29.62448 34.64927 28.81234 L 33.92905 28.20135 L 33.99823 28.56359 C 34.07384 28.95952 34.70242 30.2611 35.01584 30.67077 C 35.23055 30.95139 35.14348 30.93796 38.58897 31.22196 L 40.18678 31.35367 L 41.12748 31.01329 C 41.64486 30.82607 42.0955 30.70022 42.1289 30.73362 C 42.19268 30.79741 41.52555 32.14748 40.43437 34.16282 C 39.98329 34.99594 39.69538 35.40794 39.49014 35.51407 C 39.27717 35.62421 39.17387 35.77868 39.11955 36.06824 C 39.01359 36.63308 38.96526 36.67531 38.70481 36.43064 C 38.56708 36.30125 37.98534 36.08808 37.25475 35.89929 Z M 45.36029 35.60199 C 45.15728 35.55356 45.12118 35.47449 45.12118 35.07824 C 45.12118 34.40259 44.84546 34.44314 44.75061 35.13275 C 44.67589 35.67602 44.557 35.77559 43.97873 35.77909 C 43.75864 35.78043 43.73961 35.73248 43.73961 35.17691 L 43.73961 34.57326 L 43.35937 35.01749 C 42.98424 35.45575 42.47736 35.63007 42.45402 35.32888 C 42.42789 34.99186 42.48618 34.31149 42.5701 33.97388 C 42.86764 32.77684 42.92133 32.66198 43.45532 32.07989 C 43.75981 31.74798 44.1974 31.15361 44.42773 30.75906 L 44.84652 30.04171 L 45.38237 30.04216 C 45.79923 30.04252 46.02444 30.11313 46.39647 30.36012 C 46.6595 30.53475 47.18556 30.80568 47.56549 30.96219 C 48.07209 31.17088 48.45528 31.4403 49.00269 31.97267 C 49.41322 32.37192 49.80736 32.69859 49.87856 32.69859 C 49.94975 32.69859 50.06773 32.60293 50.14074 32.48603 C 50.21375 32.36913 50.30882 32.27349 50.35203 32.27349 C 50.49082 32.27349 50.84587 33.0769 51.02866 33.80459 C 51.14792 34.27935 51.28892 34.57642 51.4582 34.70957 C 51.71416 34.91092 51.80288 35.3919 51.60645 35.51329 C 51.5494 35.54856 51.26245 35.60587 50.96881 35.64064 L 50.4349 35.70388 L 50.4349 35.37025 C 50.4349 34.90262 50.05762 34.89578 49.95532 35.36156 C 49.8992 35.61709 49.83501 35.67951 49.65481 35.65381 C 49.44549 35.62396 49.41472 35.52133 49.29913 34.46746 C 49.22953 33.83293 49.14874 33.28994 49.1196 33.2608 C 49.09046 33.23166 48.93213 33.25264 48.76776 33.30743 C 48.54166 33.38279 48.42182 33.53426 48.27548 33.92958 C 48.1691 34.21697 47.98775 34.55296 47.87249 34.67622 C 47.75723 34.79947 47.61558 35.07178 47.55772 35.28135 C 47.46135 35.63035 47.41483 35.6661 47.0042 35.70669 C 46.54531 35.75205 45.78693 35.70374 45.36029 35.60199 Z M 16.47626 30.09163 C 15.36264 28.48839 15.29355 28.41351 14.0619 27.4748 C 13.01873 26.67976 12.80273 26.46837 12.84353 26.28242 C 12.97911 25.66448 13.69666 23.06204 13.76665 22.93437 C 13.82207 22.83329 14.02704 23.07982 14.42937 23.73143 C 15.40306 25.30842 17.48486 29.10368 17.59636 29.50504 C 17.69433 29.85769 17.75006 31.7421 17.66253 31.7421 C 17.64061 31.7421 17.1068 30.99939 16.47626 30.09163 Z M 59.19375 27.86159 C 59.4455 27.47737 59.40817 27.4651 58.85715 27.75094 C 58.39546 27.99045 58.2133 28.01549 56.72408 28.04422 C 55.21904 28.07325 55.0844 28.06013 54.94508 27.87084 C 54.86218 27.7582 54.80744 27.65296 54.82343 27.63698 C 54.83941 27.62099 55.40084 27.55435 56.07105 27.4889 C 57.85835 27.31436 58.79662 27.09835 59.54794 26.68848 L 60.21216 26.32612 L 60.21216 26.6752 C 60.21216 27.15102 59.75319 28.03585 59.39214 28.25611 C 59.13588 28.41243 59.09154 28.41529 59.06091 28.27745 C 59.04146 28.18993 59.10124 28.00279 59.19375 27.86159 Z M 39.02427 27.12131 C 39.05746 27.03481 39.25921 26.85982 39.4726 26.73243 C 40.01171 26.4106 40.44617 25.99863 40.5778 25.68445 C 40.63903 25.53832 40.71791 25.06008 40.75309 24.6217 L 40.81706 23.82464 L 41.23426 23.85814 C 41.74972 23.89952 42.11818 24.08488 42.61338 24.55192 C 43.03096 24.94576 43.1262 25.36562 42.79794 25.36562 C 42.64025 25.36562 42.58762 25.47179 42.53812 25.88973 C 42.50398 26.17799 42.37679 26.6084 42.25547 26.8462 L 42.0349 27.27856 L 40.49941 27.27856 C 39.18753 27.27856 38.97271 27.25567 39.02427 27.12131 Z M 52.27381 26.99805 C 51.9083 26.96032 51.59298 26.87197 51.56516 26.79949 C 51.53761 26.72768 51.73837 26.44897 52.01129 26.18015 L 52.50752 25.69138 L 53.19408 26.44884 L 53.88064 27.20631 L 53.40649 27.13617 C 53.14571 27.09759 52.636 27.03544 52.27381 26.99805 Z M 57.01236 26.7688 C 57.07392 26.65377 57.19897 26.531 57.29024 26.49597 C 57.47282 26.42591 58.08645 25.20877 58.08658 24.91641 C 58.08667 24.72092 58.40089 24.48043 58.82055 24.35467 L 59.07621 24.27806 L 59.0127 25.25833 C 58.93945 26.38896 58.84258 26.55174 58.10073 26.79077 C 57.65271 26.93513 57.02308 27.04698 56.93561 26.99775 C 56.91626 26.98686 56.9508 26.88383 57.01236 26.7688 Z M 36.37948 26.68867 C 35.80447 26.30815 35.30743 25.47059 35.74245 25.61521 C 35.84474 25.64922 36.35884 25.79902 36.8849 25.94812 C 37.80165 26.20794 37.86016 26.21213 38.29368 26.04906 C 38.54246 25.95548 38.9571 25.66782 39.21511 25.40981 C 39.5229 25.10201 39.74196 24.96284 39.85211 25.00511 C 39.94445 25.04055 40.02 25.10833 40.02 25.15575 C 40.02 25.20317 40.04568 25.30887 40.07706 25.39065 C 40.14854 25.57694 39.35986 26.48586 38.93697 26.70455 C 38.12317 27.12537 37.02911 27.11858 36.37948 26.68867 Z M 54.14972 26.67974 C 53.91092 26.58419 53.75452 26.46984 53.80218 26.42564 C 53.84983 26.38143 54.29532 26.32476 54.79215 26.2997 C 56.04529 26.23651 56.40788 26.04596 56.78307 25.2534 C 57.01799 24.75714 57.12791 24.6313 57.33017 24.62704 C 57.56443 24.6221 57.57906 24.65314 57.52666 25.04381 C 57.43518 25.72586 57.09079 26.16581 56.36417 26.52891 C 55.6092 26.90618 54.84562 26.95819 54.14972 26.67974 Z M 34.44278 26.40479 C 33.94474 26.21646 33.53725 26.00959 33.53725 25.94508 C 33.53725 25.741 34.01254 25.37153 34.36599 25.30083 C 34.62474 25.24909 34.70627 25.27002 34.70627 25.38818 C 34.70627 25.47364 34.9002 25.81438 35.13722 26.14538 C 35.37424 26.47638 35.5187 26.74719 35.45824 26.74719 C 35.39777 26.74719 34.94082 26.59311 34.44278 26.40479 Z M 53.94196 24.79248 C 53.94196 24.53107 54.10621 24.40508 54.34048 24.4868 C 54.41355 24.51229 54.47333 24.64871 54.47333 24.78997 C 54.47333 24.99307 54.41775 25.0468 54.20764 25.0468 C 53.99826 25.0468 53.94196 24.9929 53.94196 24.79248 Z M 36.21537 24.49417 C 36.02399 24.30279 36.06168 24.00553 36.29301 23.88173 C 36.44788 23.79884 36.53907 23.81281 36.66497 23.93872 C 36.8745 24.14824 36.87446 24.245 36.66476 24.4547 C 36.46432 24.65513 36.38344 24.66224 36.21537 24.49417 Z M 53.8872 23.34806 C 54.11461 23.11517 54.44713 22.87708 54.62612 22.81897 C 54.97076 22.70708 59.75734 21.85856 60.04385 21.85856 C 60.21928 21.85856 60.2718 22.21713 60.14483 22.54799 C 60.0853 22.70314 59.92847 22.71545 58.78983 22.6544 C 57.89628 22.60649 57.0878 22.63518 56.14837 22.74814 C 54.85838 22.90325 54.76572 22.93095 54.18229 23.33583 C 53.84553 23.56953 53.54833 23.76316 53.52186 23.76612 C 53.49538 23.76908 53.65979 23.58095 53.8872 23.34806 Z M 55.36401 21.31076 C 55.41913 21.03517 55.32562 20.77807 54.83846 19.8658 C 54.51254 19.25546 54.26118 18.74217 54.27989 18.72515 C 54.29861 18.70815 54.6726 18.5417 55.11098 18.35528 C 55.8226 18.05266 55.9783 18.02371 56.56361 18.08517 C 57.20584 18.15261 57.22773 18.14629 57.63924 17.77452 C 58.05591 17.39808 58.06707 17.39502 59.02422 17.39502 C 60.0313 17.39502 61.06235 17.55849 61.06235 17.71817 C 61.06235 17.76931 60.8549 17.93273 60.60135 18.08132 C 60.22371 18.30264 60.00271 18.35149 59.37919 18.35149 C 58.88857 18.35149 58.61804 18.39377 58.61804 18.47043 C 58.61804 18.53585 58.79737 18.88202 59.01657 19.2397 C 59.23576 19.59739 59.47332 20.02388 59.54448 20.18746 C 59.66337 20.46079 59.6528 20.49289 59.41408 20.58365 C 59.27121 20.63797 58.59128 20.78462 57.90314 20.90954 C 57.21499 21.03447 56.41541 21.25128 56.12629 21.39135 C 55.40507 21.74075 55.28064 21.72759 55.36401 21.31076 Z M 47.75147 17.8515 C 47.18157 17.81861 46.71529 17.77104 46.71529 17.74578 C 46.71529 17.72053 46.76411 17.60865 46.82377 17.49716 C 47.22977 16.73856 47.13065 15.42075 46.59118 14.4044 C 46.12984 13.53528 45.74376 13.19821 45.25131 13.23461 C 44.14227 13.31659 44.2505 13.36785 44.11482 12.69626 C 44.04736 12.36232 43.90374 11.99139 43.79568 11.87198 C 43.68762 11.75258 43.61884 11.63662 43.64284 11.6143 C 43.66683 11.59199 44.11688 11.46161 44.64294 11.32458 C 45.31122 11.1505 45.8718 11.07833 46.50343 11.08506 C 47.39959 11.0946 48.62823 11.3606 48.62823 11.54509 C 48.62823 11.59762 48.3652 11.76102 48.04372 11.9082 C 47.72224 12.05538 47.45921 12.20923 47.45921 12.25009 C 47.45921 12.29095 47.79191 12.90335 48.19853 13.61097 C 49.01131 15.02539 49.10518 15.33434 49.21581 16.95904 L 49.29105 18.06404 L 49.03935 17.98766 C 48.90092 17.94566 48.32137 17.88438 47.75147 17.8515 Z M 51.2172 15.94031 L 51.20244 14.64792 L 50.44019 12.98145 C 50.02095 12.06489 49.69282 11.3008 49.71102 11.28347 C 49.72922 11.26615 50.03106 11.28927 50.38176 11.33486 C 50.86987 11.39832 50.96333 11.43616 50.78029 11.49623 C 50.64877 11.53939 50.54134 11.60499 50.54153 11.64201 C 50.54174 11.67903 50.79281 12.1627 51.09948 12.71683 C 51.61342 13.64549 51.69032 13.73354 52.08215 13.84181 L 52.50726 13.95928 L 52.57454 14.64097 C 52.61154 15.0159 52.64741 15.68717 52.65424 16.13268 L 52.66666 16.9427 L 52.10872 17.10835 C 51.20837 17.37566 51.23398 17.40921 51.2172 15.94031 Z M 58.89102 13.86768 C 58.68135 13.62272 58.54611 13.38751 58.59049 13.34498 C 58.67686 13.26221 61.00528 12.4546 65.78947 10.84806 C 68.45852 9.951778 68.84218 9.849514 69.53564 9.849514 C 70.40704 9.849514 70.56352 9.999646 69.80992 10.11266 C 69.24914 10.19675 67.69328 10.69715 64.03804 11.96903 C 61.59515 12.81905 61.53014 12.84928 61.06235 13.35262 C 60.56139 13.89166 59.89456 14.30039 59.50309 14.30835 C 59.35991 14.31127 59.12748 14.14393 58.89102 13.86768 Z M 50.57862 10.64085 L 49.71275 10.57324 L 49.48931 9.989369 C 49.36642 9.668242 49.26588 9.385843 49.26588 9.361819 C 49.26588 9.21952 49.62725 9.361526 49.9264 9.621377 C 50.41773 10.04818 50.68197 10.16833 51.1292 10.16833 C 51.60477 10.16833 52.24157 10.45439 52.24157 10.66802 C 52.24157 10.78851 52.14958 10.81126 51.84303 10.76656 C 51.62384 10.7346 51.05486 10.67803 50.57862 10.64085 Z M 43.68523 10.42619 L 43.97491 10.0464 L 43.68919 9.263 C 43.53204 8.832129 43.3375 8.424852 43.25688 8.357941 C 43.17625 8.291029 42.90517 8.211068 42.65446 8.180249 C 42.18553 8.122605 41.93294 7.923652 41.93294 7.611942 C 41.93294 7.412013 42.90329 6.935986 43.55362 6.816879 C 44.52556 6.638872 43.4679 6.373388 42.28954 6.49958 C 41.51976 6.582018 41.40619 6.520011 41.40319 6.01562 L 41.40157 5.741932 L 43.23479 6.035506 C 44.55787 6.247383 45.21592 6.404255 45.59941 6.599211 C 45.89166 6.747782 46.39762 6.941051 46.72375 7.028698 C 47.41041 7.213232 47.56549 7.436947 47.56549 8.242992 L 47.56549 8.751966 L 46.92784 9.027097 C 46.35041 9.276241 46.29019 9.332476 46.29019 9.622496 C 46.29019 9.924398 46.31913 9.94657 46.79499 10.00917 C 47.07263 10.04569 47.36614 10.08449 47.44722 10.09538 C 47.5283 10.10628 47.63601 10.22726 47.68658 10.36423 L 47.77852 10.61326 L 46.317 10.54595 C 45.19316 10.49419 44.73271 10.51426 44.32411 10.63281 C 43.42501 10.89367 43.34773 10.86868 43.68523 10.42619 Z" fill-rule="evenodd" fill="#000000" fill-opacity="1" stroke="none" stroke-opacity="1" stroke-width="0.1" stroke-linecap="round" stroke-linejoin="round"/>
</svg>